HIERARCHY
ROOT pelvis
{
  OFFSET 0 100 0
  CHANNELS 6 Xposition Yposition Zposition Zrotation Xrotation Yrotation
  JOINT pelvis_right_femur
  {
    OFFSET -10.78128 -3.44521 -0.5502486
    CHANNELS 3 Zrotation Xrotation Yrotation
    JOINT right_femur_tibia
    {
      OFFSET -0.8047443 -44.0398 -0.1307829
      CHANNELS 3 Zrotation Xrotation Yrotation
      JOINT right_tibia_foot
      {
        OFFSET 3.006224 -47.83518 -5
        CHANNELS 3 Zrotation Xrotation Yrotation
        End Site
        {
          OFFSET 0 -5 15
        }
      }
    }
  }
  JOINT pelvis_left_femur
  {
    OFFSET 10.78128 -3.44521 -0.5502486
    CHANNELS 3 Zrotation Xrotation Yrotation
    JOINT left_femur_tibia
    {
      OFFSET 0.8047443 -44.0398 -0.1307829
      CHANNELS 3 Zrotation Xrotation Yrotation
      JOINT left_tibia_foot
      {
        OFFSET -4.370144 -48.10324 -4.275266
        CHANNELS 3 Zrotation Xrotation Yrotation
        End Site
        {
          OFFSET 0 -5 15
        }
      }
    }
  }
  JOINT pelvis_spine1
  {
    OFFSET 0 6.468898 -3.129235
    CHANNELS 3 Zrotation Xrotation Yrotation
    JOINT spine1
    {
      OFFSET 0 23.15396 4.99043
      CHANNELS 3 Zrotation Xrotation Yrotation
      JOINT spine2
      {
        OFFSET 0 20.79997 -5.064912
        CHANNELS 3 Zrotation Xrotation Yrotation
        JOINT neck
        {
          OFFSET 0 14.38658 9.616178
          CHANNELS 3 Zrotation Xrotation Yrotation
          End Site
          {
            OFFSET 0 20 0
          }
        }
      }
      JOINT right_manubrium
      {
        OFFSET -5.722621 16.35077 3.967754
        CHANNELS 3 Zrotation Xrotation Yrotation
        JOINT right_clavicle
        {
          OFFSET -13.16364 1.694482 -4.693211
          CHANNELS 3 Zrotation Xrotation Yrotation
          JOINT right_humerus
          {
            OFFSET -28.5034 -0.3100689 -2.792744
            CHANNELS 3 Zrotation Xrotation Yrotation
            JOINT right_radius
            {
              OFFSET -25.15693 0.02248979 -1.271978
              CHANNELS 3 Zrotation Xrotation Yrotation
              End Site
              {
                OFFSET -15 0 0
              }
            }
          }
        }
      }
      JOINT left_manubrium
      {
        OFFSET 5.722621 16.35077 3.967754
        CHANNELS 3 Zrotation Xrotation Yrotation
        JOINT left_clavicle
        {
          OFFSET 13.16364 1.694482 -4.693211
          CHANNELS 3 Zrotation Xrotation Yrotation
          JOINT left_humerus
          {
            OFFSET 29.39168 -1.063119 -2.237045
            CHANNELS 3 Zrotation Xrotation Yrotation
            JOINT left_radius
            {
              OFFSET 24.59957 -0.9528479 0.9047498
              CHANNELS 3 Zrotation Xrotation Yrotation
              End Site
              {
                OFFSET 15 -0 -0
              }
            }
          }
        }
      }
    }
  }
}
MOTION
Frames: 11
Frame Time: 0.0416666666667
0 103.5113 0 1.93215 -0.8503219 -0.139302 3.336862 -15.50964 10.36581 -0 40.5553 -0 -4.619932 -17.09737 -1.642395 -8.410886 9.115026 -23.39953 -0 5.672552 -0 20.41885 -8.304133 31.17235 -1.795116 -2.217559 4.869959 2.751717 9.720492 -7.960386 1.435187 20.60738 6.563982 3.432167 -26.11462 9.155541 5.322955 -19.30154 11.20188 86.77441 34.78121 -19.7744 -0 0 15.43129 -8.330544 9.007161 3.661541 6.836729 -21.21578 -0.9918662 -92.8746 21.60819 21.37934 0 0 -14.54733 12.84915 15.43716 -1.394672
0.3210834 103.8214 1.545473 1.731617 0.1401711 -0.293121 4.032897 -17.69537 10.6134 -0 38.90503 -0 -4.579293 -16.70945 -1.488584 -8.518703 8.746727 -23.24302 -0 5.618019 -0 20.92354 -9.10676 31.12106 -1.881761 -2.119571 4.408988 2.984618 9.365571 -8.120216 1.441787 20.33113 6.920378 3.611929 -26.87771 9.501899 5.272093 -18.94447 11.28497 86.86393 34.6505 -19.90022 -0 0 15.12886 -8.3306 8.935839 3.783025 6.954512 -20.91398 -0.6965507 -92.39836 21.32482 20.35613 0 0 -14.92996 12.95007 15.21988 -2.076192
0.636734 103.7322 3.650994 1.041268 0.4056268 -0.2898535 4.06156 -22.52915 6.608674 -0 31.72616 -0 -6.40814 -12.04351 -0.6211588 -7.547127 10.31163 -20.96441 -0 5.194025 -0 15.55774 -14.40781 26.90935 -1.845897 -1.938692 4.306861 3.027015 9.453429 -8.133966 1.378839 20.31814 6.935295 3.734875 -26.47601 9.147412 5.549771 -18.38397 11.40751 86.57742 34.45298 -19.94842 -0 0 14.37226 -8.809584 9.186562 4.506952 6.836758 -21.01144 -0.9773628 -92.0286 21.62571 19.67012 0 0 -15.78526 11.86797 14.79394 -0.5962225
0.9466283 103.5331 5.973061 0.706987 1.037088 -0.2249809 4.418852 -24.91525 5.876132 -0 28.68398 -0 -6.70818 -10.5713 -0.5768288 -7.273112 10.75123 -20.21162 -0 5.299373 -0 13.74009 -16.48377 25.52696 -1.846372 -1.791248 4.19079 3.066106 9.51666 -8.176583 1.313398 20.24261 6.995896 3.865225 -26.2622 8.907876 5.64363 -18.04645 11.52033 86.45317 34.28778 -19.94163 -0 0 13.91368 -9.323418 9.352486 4.979864 6.814883 -21.09852 -1.153688 -91.58877 21.36085 18.98284 0 0 -16.30994 11.4518 14.38762 -0.2166437
1.250321 103.1942 8.656391 0.3042254 1.982883 -0.05009443 4.936673 -28.37327 4.845188 -0 24.56529 -0 -7.162556 -8.450341 -0.2532271 -7.01704 11.25067 -19.08465 -0 5.805974 -0 11.98542 -18.73772 23.71509 -1.856217 -1.659944 4.004486 3.164387 9.472689 -8.249471 1.267223 20.14802 7.092754 3.970709 -26.20971 8.773519 5.758664 -17.64991 11.60757 86.34366 34.12089 -20.03017 -0 0 13.38422 -9.659531 9.507143 5.444734 6.774342 -21.09199 -1.247533 -91.19365 21.3988 18.27627 0 0 -16.95193 10.8293 14.02321 0.4565213
1.547288 102.7895 11.64912 -0.1071636 2.974494 0.234359 5.63907 -31.23328 4.406253 -0 21.44726 -0 -7.546817 -6.788142 0.02203865 -6.820625 11.60487 -18.29708 -0 6.706396 -0 10.60057 -20.44862 22.33297 -1.871999 -1.538874 3.823007 3.259869 9.432557 -8.332588 1.215439 20.03959 7.192695 4.075917 -26.16624 8.645277 5.832499 -17.30453 11.6891 86.27567 33.95814 -20.12325 -0 0 12.9058 -10.01932 9.656922 5.859203 6.76027 -21.10791 -1.333372 -90.77428 21.29918 17.5656 0 0 -17.55502 10.34422 13.65105 0.9090584
1.832643 102.3659 15.03256 -0.5995922 3.942223 0.6490578 6.450781 -33.93489 3.915119 -0 18.53652 -0 -8.160236 -4.860328 0.4545047 -6.570569 12.02916 -17.42163 -0 8.27712 -0 8.92819 -21.94584 20.6732 -1.891796 -1.426176 3.631638 3.36677 9.374437 -8.428897 1.162191 19.92124 7.298112 4.174138 -26.14512 8.531554 5.891706 -16.96948 11.76153 86.23107 33.79632 -20.24556 -0 0 12.42568 -10.36255 9.810237 6.256269 6.754099 -21.12457 -1.405561 -90.34704 21.20048 16.84612 0 0 -18.18423 9.863722 13.27576 1.346611
2.105994 102.0002 18.85539 -1.182817 4.778842 1.197914 7.37806 -35.96648 3.549257 -0 16.36792 -0 -8.970868 -2.926661 0.9541829 -6.233494 12.46548 -16.59012 -0 10.61957 -0 6.874413 -22.97028 18.79662 -1.911964 -1.320769 3.45163 3.468311 9.324374 -8.530092 1.105006 19.80143 7.396415 4.266413 -26.10313 8.409443 5.931877 -16.66126 11.82609 86.20969 33.6365 -20.38119 -0 0 11.96132 -10.72244 9.970597 6.633383 6.759289 -21.16475 -1.483273 -89.91125 21.05503 16.13558 0 0 -18.81741 9.425317 12.89337 1.727903
2.367247 101.775 23.20731 -1.854974 5.326695 1.863991 8.327856 -36.97406 3.170648 -0 14.95245 -0 -9.961486 -0.9722917 1.464867 -5.745122 12.94367 -15.6557 -0 14.06392 -0 4.201274 -23.2166 16.46161 -1.929776 -1.220594 3.292804 3.558237 9.292841 -8.630172 1.045632 19.69207 7.476425 4.345962 -26.01612 8.268676 5.961223 -16.37743 11.88241 86.20402 33.47717 -20.52595 -0 0 11.50902 -11.10288 10.14233 7.00212 6.762532 -21.22721 -1.577891 -89.47916 20.90056 15.45641 0 0 -19.44879 8.990979 12.50578 2.123578
2.623391 101.7903 28.16188 -2.570073 5.44841 2.581215 9.209598 -36.43716 2.88132 -0 14.46058 -0 -10.90654 0.7058254 1.776308 -5.069964 13.33005 -14.58596 -0 18.88121 -0 1.000949 -22.15432 13.725 -1.941672 -1.122497 3.175065 3.622118 9.303268 -8.717709 0.9865852 19.61215 7.519526 4.403313 -25.84338 8.092501 5.98624 -16.12586 11.93124 86.20622 33.31593 -20.66375 -0 0 11.08052 -11.52002 10.3287 7.371205 6.745627 -21.3124 -1.70858 -89.06787 20.76155 14.84866 0 0 -20.04365 8.536474 12.11577 2.589777
2.888856 102.1511 33.75111 -3.221579 5.045572 3.212679 9.876838 -33.9758 2.811847 -0 14.77476 -0 -11.42306 1.748934 1.599727 -4.221689 13.3213 -13.2973 -0 25.42065 -0 -2.288301 -19.21477 10.85284 -1.944035 -1.021616 3.124214 3.641133 9.385048 -8.775891 0.9324684 19.58786 7.501726 4.4246 -25.53727 7.863728 6.015187 -15.91937 11.97443 86.20356 33.14953 -20.7664 -0 0 10.69872 -11.99319 10.53187 7.751925 6.679939 -21.41231 -1.897304 -88.70386 20.67672 14.37244 0 0 -20.54228 8.02649 11.72792 3.20308
